<svg id="visual" viewBox="0 0 960 540" width="960" height="540" xmlns="http://www.w3.org/2000/svg" xmlns:xlink="http://www.w3.org/1999/xlink" version="1.1"><rect x="0" y="0" width="960" height="540" fill="#112535"></rect><path d="M0 356L87 347L175 312L262 366L349 359L436 328L524 343L611 338L698 374L785 349L873 370L960 337L960 541L873 541L785 541L698 541L611 541L524 541L436 541L349 541L262 541L175 541L87 541L0 541Z" fill="#ffd63f"></path><path d="M0 339L87 373L175 388L262 389L349 389L436 338L524 349L611 379L698 395L785 337L873 389L960 381L960 541L873 541L785 541L698 541L611 541L524 541L436 541L349 541L262 541L175 541L87 541L0 541Z" fill="#f6bf30"></path><path d="M0 405L87 391L175 410L262 369L349 408L436 383L524 405L611 380L698 372L785 372L873 373L960 368L960 541L873 541L785 541L698 541L611 541L524 541L436 541L349 541L262 541L175 541L87 541L0 541Z" fill="#eba922"></path><path d="M0 415L87 405L175 401L262 451L349 439L436 428L524 421L611 420L698 408L785 437L873 407L960 421L960 541L873 541L785 541L698 541L611 541L524 541L436 541L349 541L262 541L175 541L87 541L0 541Z" fill="#e09316"></path><path d="M0 452L87 436L175 448L262 442L349 446L436 453L524 452L611 464L698 444L785 456L873 454L960 463L960 541L873 541L785 541L698 541L611 541L524 541L436 541L349 541L262 541L175 541L87 541L0 541Z" fill="#d47e0b"></path><path d="M0 484L87 464L175 460L262 460L349 476L436 486L524 472L611 493L698 458L785 464L873 466L960 478L960 541L873 541L785 541L698 541L611 541L524 541L436 541L349 541L262 541L175 541L87 541L0 541Z" fill="#c76803"></path><path d="M0 505L87 495L175 519L262 493L349 492L436 507L524 520L611 504L698 497L785 499L873 493L960 506L960 541L873 541L785 541L698 541L611 541L524 541L436 541L349 541L262 541L175 541L87 541L0 541Z" fill="#b95300"></path></svg>